<svg xmlns="http://www.w3.org/2000/svg" viewBox="0 0 100 100" width="32" height="32">
  <rect width="100" height="100" rx="20" fill="#111111"/>
  <polyline
    points="22,70 32,66 40,61 47,52 54,56 61,38 68,31 75,20"
    fill="none"
    stroke="#FFFFFF"
    stroke-width="2.5"
    stroke-linecap="round"
    stroke-linejoin="round"
  />
  <circle cx="40" cy="61" r="1.6" fill="#FFFFFF"/>
  <circle cx="47" cy="52" r="1.6" fill="#FFFFFF"/>
  <circle cx="54" cy="56" r="1.6" fill="#FFFFFF"/>
  <circle cx="61" cy="38" r="1.6" fill="#FFFFFF"/>
  <circle cx="68" cy="31" r="1.6" fill="#FFFFFF"/>
  <g transform="translate(75, 20)">
    <path d="M0,-10 C0.4,-2.5 2.5,-0.4 10,0 C2.5,0.4 0.4,2.5 0,10 C-0.4,2.5 -2.5,0.4 -10,0 C-2.5,-0.4 -0.4,-2.5 0,-10Z" fill="#FFFFFF"/>
  </g>
</svg>
